PathFileType	4	(X/Y/Z)	E:\Marcel_BSc\Ayumi_22_01_2025\22-01-2025\conv_dl_1.trc
DataRate	CameraRate	NumFrames	NumMarkers	Units	OrigDataRate	OrigDataStartFrame	OrigNumFrames
200.0	200.0	5	47	mm	200.0	1	2445	
Frame#	Time	FHD			LBHD			RBHD			RBAR			LBAR			RSACR			LSACR			USACR			C7			CLAV			T10			RSHO			LSHO			LTHI1			LTHI3			LTHI2			LTIB1			LTIB2			LTIB3			LMMAL			LLMAL			LHEE			LMT1			LMT5			LMT3			RTHI1			RTHI2			RTHI3			RTIB1			RTIB3			RTIB2			RLMAL			RMMAL			RHEE			RMT5			RMT1			RMT3			LDUPA			LMUPA			LUUPA			LRAD			RUL			RRAD			RUFIN			RMUPA			RDUPA			RUUPA			
		X1	Y1	Z1	X2	Y2	Z2	X3	Y3	Z3	X4	Y4	Z4	X5	Y5	Z5	X6	Y6	Z6	X7	Y7	Z7	X8	Y8	Z8	X9	Y9	Z9	X10	Y10	Z10	X11	Y11	Z11	X12	Y12	Z12	X13	Y13	Z13	X14	Y14	Z14	X15	Y15	Z15	X16	Y16	Z16	X17	Y17	Z17	X18	Y18	Z18	X19	Y19	Z19	X20	Y20	Z20	X21	Y21	Z21	X22	Y22	Z22	X23	Y23	Z23	X24	Y24	Z24	X25	Y25	Z25	X26	Y26	Z26	X27	Y27	Z27	X28	Y28	Z28	X29	Y29	Z29	X30	Y30	Z30	X31	Y31	Z31	X32	Y32	Z32	X33	Y33	Z33	X34	Y34	Z34	X35	Y35	Z35	X36	Y36	Z36	X37	Y37	Z37	X38	Y38	Z38	X39	Y39	Z39	X40	Y40	Z40	X41	Y41	Z41	X42	Y42	Z42	X43	Y43	Z43	X44	Y44	Z44	X45	Y45	Z45	X46	Y46	Z46	X47	Y47	Z47	
1	-0.005	105.70753	1612.6328	-609.01855	123.1822	1595.7921	-549.04749	144.77888	1582.335	-680.41492	156.31818	240.29427	-1714.1344	180.72148	251.3631	509.1532	319.94806	965.06665	-656.14972	319.33533	967.66791	-583.66083	312.42963	976.45129	-620.46558	300.12943	1400.8132	-605.22821	162.81415	1339.236	-616.83594	312.92081	1122.7601	-614.34851	239.22472	1414.2679	-749.5473	228.73039	1403.2529	-468.08646	250.88417	611.58289	-432.82675	272.66422	550.1748	-445.90518	221.94318	552.07434	-441.4256	251.72287	239.81064	-437.01105	302.02878	235.43381	-439.69855	269.7735	178.88222	-445.4772	262.58185	74.563972	-531.67078	277.62268	71.80677	-458.89563	319.87897	35.452774	-497.93433	121.82123	43.807041	-491.99545	146.76591	28.107683	-414.96768	122.02972	40.891525	-456.94006	250.54124	613.98779	-791.45831	222.29456	555.51965	-783.7298	273.38412	553.29425	-784.13898	251.19322	281.05756	-798.85229	270.47516	218.14566	-793.21069	301.67706	276.27402	-799.43616	273.44907	74.349678	-775.83295	246.20088	79.416389	-702.53339	317.40073	31.661179	-735.36047	138.61771	33.568005	-805.76672	116.45813	41.927605	-743.17902	120.24735	39.880745	-774.3725	307.20892	1322.332	-283.88675	280.73981	1364.2495	-285.62067	290.67676	1368.4338	-346.78726	238.48975	1346.1173	46.307743	307.6394	1352.9741	-1249.2589	251.35503	1378.5133	-1253.5714	256.32858	1383.0275	-1325.0748	310.12778	1365.5767	-854.58606	313.74973	1355.5366	-915.71277	324.07132	1318.7924	-846.45557
2	0	105.79455	1612.661	-609.06177	123.29149	1595.8097	-549.07593	144.88496	1582.325	-680.46014	156.33569	240.27635	-1714.1371	180.72223	251.3609	509.15997	319.94751	965.10364	-656.12006	319.68954	967.43628	-583.82495	312.42953	976.50238	-620.44843	300.18402	1400.7882	-605.24115	162.83653	1339.2665	-616.85889	312.92682	1122.7429	-614.34644	239.29578	1414.2682	-749.56677	228.79189	1403.2528	-468.11703	250.87744	611.57538	-432.79709	272.68665	550.15814	-445.87704	221.93314	552.091	-441.40329	251.75298	239.80074	-436.98926	302.04846	235.4442	-439.68216	269.74603	178.90622	-445.48636	262.57956	74.568489	-531.66772	277.71375	71.80278	-458.86826	319.77307	36.397869	-498.73486	121.81792	43.80138	-491.99753	146.75412	28.128731	-414.96774	122.01788	40.89035	-456.94797	250.52068	613.98187	-791.45831	222.27446	555.52209	-783.69556	273.35959	553.2666	-784.16394	251.17656	281.06927	-798.86407	270.43723	218.13834	-793.20929	301.63965	276.26953	-799.4588	273.43787	74.349525	-775.83771	246.20105	79.421104	-702.52747	317.39679	31.646296	-735.36273	138.6208	33.572609	-805.76935	116.45411	41.932095	-743.17639	120.24484	39.888676	-774.37543	307.19644	1322.3656	-283.88724	280.71414	1364.2927	-285.62247	290.67474	1368.4731	-346.79919	238.42746	1346.2554	46.289482	307.66977	1353.0142	-1249.2948	251.49318	1378.672	-1253.6525	256.37131	1383.1245	-1325.0927	310.17636	1365.5662	-854.61664	313.78595	1355.5258	-915.74121	324.10477	1318.7604	-846.49152
3	0.005	105.88519	1612.6785	-609.10071	123.3717	1595.825	-549.12555	144.97662	1582.318	-680.49841	156.31534	240.28828	-1714.1455	180.72292	251.36354	509.1582	319.95242	965.1441	-656.10089	319.70667	967.47803	-583.80493	312.4274	976.53485	-620.4339	300.254	1400.7661	-605.25079	162.8662	1339.3035	-616.88385	312.93198	1122.7341	-614.35327	239.39108	1414.2744	-749.58698	228.82706	1403.264	-468.15659	250.85199	611.56067	-432.76913	272.65088	550.1369	-445.80643	221.90645	552.09357	-441.41431	251.71249	239.79466	-437.00296	302.01755	235.41519	-439.65271	269.73239	178.89964	-445.48044	262.59033	74.562103	-531.65839	277.70547	71.833618	-458.8356	319.88248	35.4408	-497.92902	121.81082	43.812374	-491.99741	146.76143	28.108948	-414.97086	122.01556	40.90675	-456.94519	250.50848	613.9743	-791.47418	222.25153	555.50977	-783.66357	273.35205	553.26361	-784.16083	251.11357	281.05103	-798.87006	270.40823	218.13753	-793.20776	301.60718	276.27051	-799.47571	273.43298	74.358681	-775.85004	246.1987	79.414528	-702.5235	317.39551	31.653412	-735.35608	138.62418	33.568882	-805.7619	116.45562	41.927723	-743.16858	120.24931	39.889435	-774.37354	307.18356	1322.3932	-283.87631	280.68948	1364.3378	-285.62683	290.69101	1368.4988	-346.81003	238.37538	1346.4297	46.263432	307.7045	1353.0594	-1249.3208	251.82249	1378.1985	-1253.8479	256.42493	1383.2225	-1325.1155	309.80679	1365.6489	-854.69861	313.82529	1355.5251	-915.76813	324.13403	1318.7352	-846.51935
4	0.01	105.98013	1612.7023	-609.14209	123.46947	1595.8665	-549.15192	145.09001	1582.3253	-680.52875	156.31575	240.29233	-1714.1448	180.72993	251.37019	509.15735	319.95981	965.18835	-656.10016	319.70984	967.53564	-583.79266	312.43857	976.58136	-620.41742	300.29773	1400.7589	-605.27179	162.89345	1339.3484	-616.89221	312.93228	1122.7034	-614.3548	239.44054	1414.2811	-749.59448	228.87227	1403.2952	-468.18848	250.79634	611.53748	-432.73398	272.58694	550.10992	-445.7525	221.83328	552.09637	-441.43384	251.68187	239.79065	-436.996	301.99405	235.41113	-439.63617	269.73468	178.90074	-445.45767	262.58664	74.570122	-531.65259	277.85092	71.86908	-458.75266	319.87607	35.448784	-497.91373	121.81652	43.804287	-491.99539	146.7486	28.125551	-414.97113	122.01122	40.905483	-456.95358	250.49413	613.99567	-791.44458	222.21017	555.539	-783.67059	273.32214	553.26367	-784.15979	251.09425	281.07217	-798.84119	270.37219	218.11554	-793.19379	301.54456	276.25668	-799.49567	273.42087	74.361992	-775.84961	246.19626	79.428307	-702.51978	317.39017	31.669312	-735.36926	138.62514	33.570164	-805.76636	116.44284	41.92543	-743.1687	120.2317	39.884541	-774.36658	307.18219	1322.4233	-283.87943	280.69736	1364.3751	-285.6387	290.68979	1368.4995	-346.83679	238.32639	1346.5975	46.242271	307.74207	1353.1061	-1249.351	251.88058	1378.2969	-1253.8538	256.47089	1383.3386	-1325.1279	309.8638	1365.6368	-854.71472	313.87363	1355.5189	-915.78455	324.17209	1318.7141	-846.54895
5	0.015	106.07751	1612.7075	-609.19952	123.5418	1595.9237	-549.20081	145.17188	1582.3407	-680.54865	156.18887	240.62228	-1713.9667	180.74196	251.35728	509.11768	319.99353	965.22083	-656.07819	319.71567	967.61554	-583.77295	312.45511	976.61658	-620.41193	300.3447	1400.7501	-605.28613	162.91589	1339.3958	-616.92792	312.93591	1122.7062	-614.3537	239.49579	1414.3038	-749.61182	228.92502	1403.3271	-468.20599	250.77788	611.56671	-432.6972	272.51562	550.09418	-445.70871	221.76488	552.09387	-441.44321	251.65158	239.77016	-437.01627	301.94861	235.41963	-439.62592	269.72113	178.89009	-445.45239	262.57623	74.57016	-531.65094	277.88132	71.903488	-458.7428	319.87744	35.507763	-497.95929	121.82204	43.809536	-491.99478	146.78719	28.093775	-414.97055	122.01608	40.888737	-456.94849	250.48187	613.99316	-791.44104	222.19212	555.54224	-783.63654	273.29456	553.26245	-784.16296	251.03226	281.0444	-798.8136	270.32541	218.12711	-793.17603	301.48651	276.25009	-799.49927	273.42609	74.338013	-775.83521	246.21259	79.41748	-702.49762	317.38962	31.669569	-735.37219	138.62756	33.570217	-805.75543	116.44911	41.917686	-743.17334	120.23888	39.886276	-774.36017	307.16684	1322.4456	-283.89722	280.65723	1364.4193	-285.64398	290.72327	1368.52	-346.85742	238.26431	1346.7484	46.218712	307.77798	1353.1571	-1249.3704	251.93289	1378.4022	-1253.8514	256.5192	1383.4594	-1325.1323	309.90851	1365.6313	-854.7417	313.91736	1355.5249	-915.80963	324.21179	1318.7021	-846.57721
